<svg version="1" xmlns="http://www.w3.org/2000/svg" width="682.667" height="682.667" viewBox="0 0 512.000000 512.000000"><path d="M92.7 258.7c-11.7 1.7-12.4 1.8-20.7 4.8-31.2 11.2-53.2 35.4-62.6 69-2.6 9.2-2.8 11.4-2.9 27.5 0 18.6 1.1 25.4 5.9 38.3 5.8 15.3 12.7 26 24.5 37.7 19.5 19.4 43.7 29 71.6 28.5 13.8-.3 18-.9 29-4 19.7-5.7 35.8-16.2 46.2-30 4.2-5.6 9.8-15.4 9.1-15.9-.5-.4-31.3-9.6-32-9.6-.4 0-1.5 1.6-2.4 3.7-2.8 5.8-12.7 14.7-21.2 19.1-40 20.8-84-2.1-95-49.4-3.8-16.4-1.4-37.7 5.8-53 3.5-7.3 11.5-18.3 16.1-22.2 1.7-1.4 3.7-3.1 4.3-3.8.7-.6 3.7-2.6 6.7-4.3 24.4-13.7 55.1-10.1 73.7 8.7 3.4 3.5 6.9 7.7 7.7 9.3.9 1.6 2.1 2.9 2.8 2.9 2.8 0 31.7-9.6 31.7-10.5 0-.6-2.1-4.2-4.7-8-12.2-18.3-29.9-30.8-51.8-36.6-11.8-3.2-29.1-4.1-41.8-2.2zM296 258.9c-15.3 3.4-26.6 8.8-36.8 17.6-6.3 5.4-13.2 13.4-15.7 18.1-1.8 3.4-1.6 4.5-1.8-17.1l-.2-17h-46l-.1 100.2V461h51.3V342.2l4.3-8.7c9.2-18.6 24.9-30.2 41.9-31 17.6-.9 29.2 10.6 31.7 31.5.4 3.6.8 33.5.8 66.5l.1 60 25.7.3 25.8.2.2-59.8.3-59.9 4.3-8.5c11-22.4 33.4-34.8 52.3-29.2 8.6 2.6 16.2 11.2 18.9 21.4.7 2.5 1.5 5.4 1.8 6.5.3 1.1.6 30.1.8 64.5.1 34.4.3 63.1.3 63.7.1 1 5.9 1.3 25.7 1.3h25.5l-.4-72.7c-.2-40.1-.7-74.6-1.1-76.8-5-27.8-16.9-44.3-37.1-51.6-8-2.9-29.8-3.5-40.1-1.2-21.2 4.7-37.8 15.8-50.5 33.6l-4.8 6.9-1.6-5.4c-2.2-7.7-6.9-15.4-13.4-21.9-10.3-10.3-22-14.5-41.6-14.7-8.4-.1-14.5.4-20.5 1.7z"/></svg>